<?xml version="1.0" encoding="UTF-8"?>
<svg id="Layer_1" data-name="Layer 1" xmlns="http://www.w3.org/2000/svg" viewBox="0 0 107 107">
  <defs>
    <style>
      .cls-1 {
        fill: #fff;
      }

      .cls-2 {
        fill: #3b8d7f;
      }
    </style>
  </defs>
  <circle class="cls-2" cx="53.5" cy="53.5" r="53.5"/>
  <path class="cls-1" d="M40.41,68.3s-.02-.04,.02-.08c.25,.03,.47,.06,.66,.14,1.04,.49,2.06,1.01,3.11,1.49,.95,.43,1.92,.82,2.92,1.24,1.33,2.09,2.61,4.17,3.9,6.24,.53,.86,1.08,1.71,1.65,2.61,1.05-1.67,2.05-3.27,3.09-4.84,1.27,.64,2.5,1.26,3.73,1.88-.76,1.24-1.51,2.48-2.28,3.72-.32,.51-.63,1.03-1.02,1.52-1.73,2.17-5.84,2-7.3-.3-1.44-2.27-2.83-4.56-4.25-6.84-1.27-2.04-2.54-4.08-3.81-6.13-.1-.16-.22-.31-.34-.52-.04-.09-.06-.12-.09-.14h0Z"/>
  <path class="cls-1" d="M26.83,46.44c-1.48-2.38-2.96-4.76-4.43-7.14-.18-.28-.28-.6-.38-.94,.19,0,.34,.02,.47,.09,1.47,.71,2.92,1.44,4.4,2.13,.48,.22,1.04,.33,1.58,.52,1.39,2.26,2.79,4.48,4.14,6.71,.24,.39,.48,.55,1.02,.54,4.2-.02,8.4,0,12.62,.04,.16,.16,.29,.33,.47,.42,1.15,.57,2.31,1.1,3.45,1.68,.88,.45,1.74,.93,2.55,1.41-4.78,0-9.51,0-14.24-.04-.16-.14-.28-.28-.45-.36-.93-.46-1.87-.92-2.81-1.37-2.57-1.24-5.14-2.47-7.73-3.69-.17-.08-.45,0-.68,0h.02Z"/>
  <path class="cls-1" d="M35.73,60.72c-1.79-2.87-3.58-5.74-5.32-8.65,.17,0,.3,0,.41,.07,1.84,.89,3.67,1.8,5.51,2.68,.2,.09,.47,.07,.76,.11,1.53,2.42,3.02,4.82,4.48,7.23,.22,.36,.45,.46,.9,.46,2.56,0,5.11,0,7.68,.05,.21,.18,.38,.36,.6,.47,1.6,.77,3.21,1.52,4.8,2.3,.41,.2,.76,.48,1.07,.73-3.23,0-6.39,0-9.57-.04-.18-.15-.32-.29-.5-.38-2.83-1.37-5.66-2.75-8.51-4.1-.74-.35-1.54-.62-2.31-.92h0Z"/>
  <path class="cls-1" d="M74.71,52.48c-.73,1.21-1.46,2.42-2.27,3.64-1.31-.58-2.53-1.18-3.75-1.81,.45-.8,.9-1.56,1.4-2.42-2.98,0-5.87,0-8.76-.04-.19-.17-.34-.34-.54-.43-1.53-.75-3.07-1.47-4.59-2.23-.46-.23-.84-.55-1.2-.84,4.03,0,7.99,0,11.97,.04,.12,.13,.2,.24,.33,.3,1.56,.75,3.13,1.47,4.67,2.24,.94,.47,1.83,1.02,2.74,1.53v.02Z"/>
  <path class="cls-1" d="M56.68,66.16c-.38-.24-.72-.52-1.13-.72-1.59-.78-3.2-1.53-4.8-2.3-.22-.11-.4-.28-.54-.47,3.44-.04,6.82-.03,10.22,0,.21,.18,.38,.36,.6,.46,1.01,.5,2.03,.99,3.06,1.46,.81,.37,1.65,.69,2.48,1.04-.73,1.18-1.46,2.36-2.27,3.53-.73-.31-1.37-.63-2.04-.9-.6-.24-1.24-.42-1.85-.67,.26-.48,.51-.92,.8-1.42h-4.53Z"/>
  <path class="cls-1" d="M35.73,60.76c.77,.27,1.56,.53,2.3,.88,2.85,1.35,5.68,2.73,8.51,4.1,.18,.09,.33,.23,.44,.39-.96,.04-1.87,.04-2.84,.04,.12,.22,.21,.4,.32,.58,.87,1.44,1.74,2.88,2.61,4.32-.96-.41-1.94-.79-2.88-1.23-1.05-.48-2.07-1-3.11-1.49-.18-.09-.41-.12-.67-.17-1.11-1.7-2.17-3.4-3.24-5.1-.48-.77-.96-1.53-1.45-2.33h.01Z"/>
  <path class="cls-1" d="M47.99,34.1c3.79,0,7.57,0,11.44,.03,.24,.16,.39,.3,.57,.39,1.84,.9,3.69,1.79,5.52,2.7,.2,.1,.34,.27,.44,.42-3.85,0-7.64,0-11.44-.04-.14-.14-.25-.26-.39-.33-1.79-.87-3.59-1.72-5.37-2.59-.29-.14-.52-.38-.77-.57h0Z"/>
  <path class="cls-1" d="M70.3,34.1c3.18,0,6.36-.09,9.53,.02,1.6,.05,2.7,.97,3.28,2.22,.48,1.03,.44,2.07-.24,3.05-.17,.25-.3,.52-.53,.79-1.31-.59-2.54-1.17-3.76-1.79,.12-.26,.24-.48,.38-.75-.81,0-1.53,0-2.26-.04-.23-.21-.43-.42-.68-.55-1.3-.64-2.62-1.24-3.91-1.89-.63-.32-1.21-.7-1.81-1.06h0Z"/>
  <path class="cls-1" d="M47.93,34.1c.32,.2,.54,.44,.83,.58,1.78,.87,3.58,1.72,5.37,2.59,.15,.07,.25,.2,.33,.34-3.7,.04-7.36,.03-11.02,0-.14-.14-.24-.26-.39-.33-1.46-.71-2.94-1.4-4.38-2.12-.61-.31-1.17-.69-1.76-1.04,3.65,0,7.31,0,11.02,0v-.02Z"/>
  <path class="cls-1" d="M36.85,34.1c.65,.36,1.21,.74,1.82,1.05,1.45,.73,2.92,1.41,4.38,2.12,.15,.07,.25,.2,.33,.34-3.75,.04-7.45,.03-11.15,0-.18-.19-.33-.39-.54-.49-1.51-.74-3.04-1.46-4.55-2.2-.46-.23-.87-.53-1.31-.8,3.65,0,7.31,0,11.02,0v-.02Z"/>
  <path class="cls-1" d="M70.24,34.1c.66,.36,1.24,.75,1.87,1.07,1.29,.65,2.61,1.25,3.91,1.89,.26,.13,.45,.34,.62,.55-3.57,.04-7.09,.03-10.61,.03-.17-.14-.31-.31-.5-.41-1.84-.91-3.68-1.8-5.52-2.7-.18-.09-.33-.23-.51-.38,3.55-.04,7.12-.05,10.74-.04h0Z"/>
  <path class="cls-1" d="M37.05,54.91c-.24-.03-.52,0-.71-.1-1.85-.88-3.68-1.78-5.51-2.68-.11-.05-.25-.07-.42-.11-1.21-1.84-2.36-3.69-3.54-5.56,.21-.04,.48-.11,.65-.03,2.58,1.22,5.16,2.46,7.73,3.69,.94,.45,1.88,.91,2.81,1.37,.16,.08,.29,.21,.38,.36-1.06,.04-2.07,.04-3.17,.04,.12,.22,.21,.38,.3,.54,.49,.82,.99,1.64,1.48,2.46v.02Z"/>
  <path class="cls-1" d="M25.77,34.1c.49,.28,.9,.58,1.36,.8,1.51,.75,3.04,1.46,4.55,2.2,.21,.1,.36,.3,.48,.5-1.94,.05-3.83,.05-5.81,.05,.73,1.17,1.42,2.3,2.12,3.42-.52-.16-1.08-.26-1.57-.49-1.48-.69-2.94-1.42-4.4-2.13-.13-.06-.29-.08-.48-.13-.28-1.63,.39-2.92,2.04-3.8,.47-.25,1.09-.3,1.7-.43h0Z"/>
  <path class="cls-1" d="M68.69,54.35c1.22,.59,2.44,1.19,3.71,1.79,.04,.03,.04,.05,0,.11-.06,.07-.08,.1-.09,.13-.71,1.16-1.41,2.32-2.12,3.48-.24,.39-.48,.77-.81,1.17-1.49-.34-2.73-.92-3.78-1.78,.97-1.59,1.91-3.16,2.87-4.71,.05-.07,.15-.12,.23-.18h-.01Z"/>
  <path class="cls-1" d="M65.57,59.29c1.07,.83,2.31,1.41,3.76,1.77-.78,1.38-1.62,2.76-2.45,4.14-.08,.13-.14,.26-.26,.41-.87-.33-1.71-.65-2.52-1.02-1.03-.47-2.05-.96-3.06-1.46-.22-.11-.39-.28-.54-.47,.85-.04,1.64-.06,2.44-.04,.41,0,.64-.09,.82-.4,.59-.99,1.21-1.96,1.82-2.94h-.01Z"/>
  <path class="cls-1" d="M74.76,52.47c-.95-.49-1.84-1.04-2.78-1.51-1.54-.77-3.11-1.49-4.67-2.24-.13-.06-.21-.18-.27-.31,1.09-.04,2.15-.14,3.18-.03,1.6,.18,2.65-.23,3.13-1.53,1.28,.6,2.53,1.17,3.78,1.74-.75,1.24-1.51,2.48-2.26,3.71-.03,.05-.04,.1-.11,.17h0Z"/>
  <path class="cls-1" d="M77.17,48.56c-1.29-.55-2.54-1.12-3.8-1.75,.81-1.42,1.63-2.77,2.46-4.12,.04-.06,.13-.09,.25-.13,.5,.23,.94,.48,1.41,.68,.79,.34,1.6,.66,2.41,.98-.89,1.44-1.79,2.88-2.72,4.33h-.01Z"/>
  <path class="cls-1" d="M59.54,76.98c-1.27-.6-2.5-1.22-3.75-1.9,.86-1.45,1.74-2.84,2.65-4.19,1.25,.65,2.47,1.26,3.7,1.87-.85,1.4-1.7,2.8-2.59,4.22h-.01Z"/>
  <path class="cls-1" d="M79.91,44.19c-.83-.29-1.64-.61-2.43-.95-.47-.2-.91-.45-1.41-.72,.8-1.4,1.64-2.74,2.48-4.09,1.23,.58,2.46,1.17,3.73,1.77-.76,1.33-1.56,2.64-2.38,3.99h0Z"/>
  <path class="cls-1" d="M62.15,72.72c-1.25-.58-2.47-1.19-3.72-1.88,.64-1.12,1.3-2.17,1.97-3.22,.62,.21,1.26,.39,1.86,.63,.67,.27,1.31,.59,2,.92-.67,1.19-1.38,2.35-2.11,3.54h0Z"/>
  <path class="cls-1" d="M72.34,56.37s0-.05,.05-.09c0,0,0,.05-.05,.09Z"/>
  <path class="cls-1" d="M40.4,68.33s.06,.02,.09,.07c-.02,0-.06-.02-.09-.07Z"/>
  <path class="cls-1" d="M61.34,51.86c-2.8,.04-5.6,.05-8.47,.04-.93-.48-1.79-.96-2.67-1.41-1.14-.57-2.31-1.11-3.45-1.68-.18-.09-.31-.25-.47-.42,2.84-.04,5.69-.05,8.61-.04,.48,.29,.87,.61,1.33,.84,1.52,.76,3.06,1.48,4.59,2.23,.2,.1,.36,.26,.54,.43h0Z"/>
</svg>